<?xml version="1.0" standalone="no"?>
<!DOCTYPE svg PUBLIC "-//W3C//DTD SVG 20010904//EN"
 "http://www.w3.org/TR/2001/REC-SVG-20010904/DTD/svg10.dtd">
<svg version="1.0" xmlns="http://www.w3.org/2000/svg"
 width="1024.000000pt" height="559.000000pt" viewBox="0 0 1024.000000 559.000000"
 preserveAspectRatio="xMidYMid meet">

<g transform="translate(0.000000,559.000000) scale(0.100000,-0.100000)"
fill="#000000" stroke="none">
<path d="M3575 3843 c-235 -29 -397 -188 -412 -405 -12 -184 52 -326 190 -418
179 -120 435 -105 592 34 l50 44 -65 60 -65 59 -42 -34 c-121 -100 -272 -95
-377 10 -133 134 -108 350 52 445 42 24 57 27 137 27 99 0 134 -12 192 -68
l33 -31 22 21 c13 11 43 39 68 62 l45 42 -44 39 c-61 53 -141 90 -230 106 -76
13 -91 14 -146 7z"/>
<path d="M8114 3835 c-130 -24 -225 -84 -293 -184 -60 -88 -75 -140 -75 -261
0 -119 18 -179 79 -262 135 -184 410 -243 623 -134 48 25 122 88 122 105 0 5
-28 34 -62 65 l-63 55 -30 -28 c-57 -54 -112 -76 -195 -76 -112 0 -191 47
-245 147 -25 45 -29 64 -30 128 0 179 126 292 309 278 68 -6 108 -23 161 -69
l35 -31 62 60 63 61 -34 35 c-50 51 -141 96 -229 112 -91 16 -105 16 -198 -1z"/>
<path d="M1670 3395 l0 -435 100 0 100 0 0 435 0 435 -100 0 -100 0 0 -435z"/>
<path d="M1972 3748 l3 -83 138 0 137 0 0 -306 c0 -168 3 -327 6 -353 l7 -46
98 0 99 0 0 353 0 352 47 0 c27 0 90 2 141 3 l92 2 0 80 0 80 -385 0 -386 0 3
-82z"/>
<path d="M4120 3395 l0 -435 340 0 340 0 0 80 0 80 -240 0 -240 0 0 100 0 100
205 0 205 0 0 80 0 80 -205 0 -205 0 0 95 0 95 230 0 230 0 0 80 0 80 -330 0
-330 0 0 -435z"/>
<path d="M4950 3395 l0 -435 100 0 100 0 0 125 0 125 143 0 c187 0 240 15 323
92 134 124 107 380 -50 472 -76 44 -156 56 -398 56 l-218 0 0 -435z m476 252
c56 -29 69 -53 69 -127 0 -59 -3 -72 -25 -95 -41 -45 -78 -55 -205 -55 l-115
0 0 151 0 152 123 -5 c81 -4 134 -11 153 -21z"/>
<path d="M5840 3394 l0 -435 293 3 293 3 64 32 c68 34 103 72 120 134 31 105
-17 218 -115 275 -18 10 -17 13 18 43 93 82 83 251 -19 321 -71 50 -140 60
-411 60 l-243 0 0 -436z m494 263 c57 -38 59 -119 3 -161 -25 -18 -45 -21
-163 -24 l-134 -4 0 99 c0 55 3 103 8 107 4 5 64 6 133 4 99 -3 132 -7 153
-21z m33 -350 c66 -35 63 -146 -6 -181 -23 -12 -63 -16 -176 -16 l-145 0 0
103 c0 57 3 107 8 111 4 5 70 6 147 4 105 -3 148 -9 172 -21z"/>
<path d="M6770 3395 l0 -435 99 0 99 0 209 280 208 279 3 -279 2 -280 100 0
100 0 0 435 0 435 -97 0 -98 0 -165 -222 c-91 -121 -183 -247 -205 -279 -22
-32 -43 -59 -47 -59 -5 0 -8 126 -8 280 l0 280 -100 0 -100 0 0 -435z"/>
<path d="M1670 2653 l0 -42 3455 -1 3455 0 0 42 0 43 -3455 0 -3455 0 0 -42z"/>
<path d="M6178 2339 c-54 -16 -116 -73 -128 -120 -26 -96 24 -165 143 -199
205 -59 227 -73 227 -140 0 -66 -62 -110 -156 -110 -45 0 -133 28 -173 56 -33
23 -37 23 -48 7 -21 -27 -15 -41 25 -66 120 -75 301 -73 380 6 40 41 57 101
42 156 -17 65 -63 95 -199 130 -111 29 -149 47 -167 83 -12 24 -13 36 -4 64
29 87 186 109 296 43 l32 -19 11 31 c6 18 11 33 11 34 0 2 -24 13 -52 25 -60
26 -180 36 -240 19z"/>
<path d="M1660 2030 l0 -310 40 0 40 0 0 83 0 83 63 62 63 62 119 -145 119
-145 44 0 44 0 -34 42 c-18 24 -81 101 -140 172 l-107 129 130 136 129 136
-41 3 c-23 2 -45 -1 -48 -7 -4 -5 -82 -86 -174 -180 l-167 -169 0 179 0 179
-40 0 -40 0 0 -310z"/>
<path d="M2534 2263 c-19 -43 -39 -87 -44 -98 -20 -43 -192 -421 -197 -432 -4
-9 7 -13 34 -13 l39 0 35 83 35 82 172 3 173 2 39 -85 39 -85 40 0 40 0 -29
63 c-15 34 -80 172 -142 307 l-115 245 -42 3 -42 3 -35 -78z m149 -152 c37
-82 67 -154 67 -160 0 -8 -44 -11 -140 -11 -96 0 -140 3 -140 11 0 15 134 309
140 309 3 0 36 -67 73 -149z"/>
<path d="M3090 2310 l0 -30 196 -2 195 -3 -133 -166 c-73 -91 -163 -203 -200
-249 -48 -59 -68 -91 -68 -112 l0 -28 255 0 255 0 0 30 0 30 -205 0 c-113 0
-205 3 -205 6 0 3 90 119 200 256 134 168 200 258 200 274 l0 24 -245 0 -245
0 0 -30z"/>
<path d="M3976 2288 c-13 -29 -76 -167 -140 -307 -64 -139 -116 -255 -116
-257 0 -2 17 -4 38 -4 37 0 37 1 73 83 l35 82 175 3 175 2 34 -81 c18 -44 39
-83 46 -86 6 -2 25 -3 42 -1 l29 3 -33 70 c-19 39 -83 176 -143 305 l-109 235
-41 3 c-41 3 -42 3 -65 -50z m86 -66 c46 -98 118 -265 118 -273 0 -5 -63 -9
-140 -9 -89 0 -140 4 -140 10 0 6 22 60 50 119 27 60 57 128 66 150 9 23 19
41 23 41 3 0 14 -17 23 -38z"/>
<path d="M4560 2030 l0 -310 35 0 35 0 0 78 0 77 66 68 c37 38 69 65 73 60 4
-4 59 -70 121 -145 l114 -138 44 0 44 0 -43 53 c-24 28 -88 105 -142 170 l-98
118 130 137 130 137 -38 3 c-39 3 -42 0 -203 -163 -90 -92 -167 -173 -171
-181 -21 -38 -27 -3 -27 166 l0 180 -35 0 -35 0 0 -310z"/>
<path d="M5280 2030 l0 -310 40 0 40 0 0 145 0 145 185 0 185 0 0 -145 0 -145
35 0 35 0 0 310 0 310 -35 0 -35 0 0 -135 0 -135 -185 0 -185 0 0 135 0 135
-40 0 -40 0 0 -310z"/>
<path d="M6630 2310 l0 -30 105 0 105 0 0 -280 0 -280 35 0 35 0 0 280 0 280
110 0 110 0 0 30 0 30 -250 0 -250 0 0 -30z"/>
<path d="M7377 2108 c-58 -128 -122 -268 -141 -310 l-35 -78 38 0 c38 0 38 0
72 78 18 42 38 80 44 84 5 4 85 8 176 8 l166 0 38 -85 38 -85 38 0 c22 0 39 2
39 4 0 2 -31 69 -68 148 -37 78 -101 216 -142 305 l-75 163 -41 0 -41 0 -106
-232z m230 -22 c35 -76 63 -140 63 -142 0 -2 -65 -4 -145 -4 -80 0 -145 3
-145 6 0 6 115 266 132 298 10 19 11 19 21 0 6 -10 39 -81 74 -158z"/>
<path d="M8042 2030 l3 -310 37 0 38 0 2 243 3 244 195 -244 c183 -228 196
-243 227 -243 l33 0 0 310 0 310 -35 0 -35 0 0 -240 c0 -132 -4 -240 -8 -240
-5 0 -38 37 -74 83 -74 92 -135 169 -244 305 -69 84 -78 92 -110 92 l-35 0 3
-310z"/>
</g>
</svg>
