<?xml version="1.0" standalone="no"?>
<!DOCTYPE svg PUBLIC "-//W3C//DTD SVG 20010904//EN"
 "http://www.w3.org/TR/2001/REC-SVG-20010904/DTD/svg10.dtd">
<svg version="1.0" xmlns="http://www.w3.org/2000/svg"
 width="960.000000pt" height="339.000000pt" viewBox="0 0 960.000000 339.000000"
 preserveAspectRatio="xMidYMid meet">

<g transform="translate(0.000000,339.000000) scale(0.100000,-0.100000)"
fill="#000000" stroke="none">
<path d="M1520 3380 c-187 -23 -378 -79 -550 -161 -340 -162 -646 -466 -804
-799 -252 -532 -213 -1150 104 -1635 427 -654 1239 -940 1980 -699 126 41 317
133 419 201 l75 50 82 -54 c186 -121 434 -219 659 -259 122 -22 420 -25 540
-6 252 41 490 132 696 267 l79 53 83 -56 c346 -232 812 -329 1237 -256 215 37
468 136 653 257 l83 54 88 -58 c494 -326 1141 -367 1684 -109 384 183 700 520
852 907 241 613 107 1302 -342 1769 -166 172 -294 267 -493 365 -422 207 -896
235 -1340 79 -110 -39 -298 -134 -384 -193 l-64 -45 -82 54 c-303 197 -662
297 -1015 281 -326 -15 -615 -107 -880 -282 l-80 -53 -82 55 c-561 376 -1313
375 -1893 -2 l-81 -52 -49 34 c-205 140 -433 232 -686 279 -101 18 -385 26
-489 14z m426 -365 c49 -9 133 -29 187 -46 98 -30 306 -128 328 -155 9 -11 3
-24 -29 -61 -159 -191 -285 -457 -344 -726 -20 -89 -22 -131 -22 -332 0 -201
2 -243 22 -332 58 -264 159 -484 319 -692 l65 -84 -23 -19 c-44 -34 -223 -116
-321 -147 -135 -43 -260 -61 -414 -61 -373 0 -699 135 -965 400 -172 171 -292
379 -351 607 -40 156 -50 384 -23 544 93 561 545 1008 1113 1104 109 18 351
18 458 0z m2164 -23 c132 -34 243 -80 348 -141 65 -38 72 -45 60 -59 -7 -9
-29 -37 -49 -62 -147 -181 -266 -432 -325 -685 -27 -113 -29 -133 -28 -350 0
-200 3 -243 22 -331 58 -267 189 -540 347 -723 56 -65 62 -56 -98 -137 -198
-99 -389 -144 -612 -144 -151 0 -278 19 -415 62 -95 30 -273 112 -319 147
l-25 19 51 63 c166 210 276 445 334 719 31 143 34 472 5 625 -49 266 -169 530
-338 742 -27 35 -47 67 -43 73 19 31 254 139 375 172 150 41 207 47 405 44
173 -3 200 -6 305 -34z m1948 23 c50 -8 136 -29 190 -46 94 -30 302 -129 323
-155 7 -9 -7 -34 -54 -96 -348 -452 -447 -1031 -266 -1561 58 -169 162 -358
276 -500 42 -53 52 -71 43 -81 -18 -22 -228 -122 -315 -150 -139 -45 -214 -58
-382 -63 -126 -4 -185 -2 -265 12 -171 28 -357 98 -501 187 l-38 24 52 64
c166 206 283 452 339 715 31 142 38 418 16 573 -42 282 -166 569 -341 787 -76
94 -82 80 78 160 119 60 260 108 382 129 109 19 347 20 463 1z m2107 -9 c328
-74 615 -256 811 -515 92 -121 186 -316 226 -466 31 -116 32 -127 32 -325 1
-184 -2 -215 -23 -300 -64 -256 -178 -457 -361 -640 -265 -266 -591 -400 -970
-400 -222 0 -406 42 -595 135 -60 30 -121 63 -134 74 l-25 19 41 48 c105 127
218 322 276 479 78 212 101 347 101 590 0 167 -4 206 -27 316 -58 274 -168
508 -338 718 l-51 64 23 19 c39 29 218 114 299 141 65 21 161 45 250 61 58 10
397 -3 465 -18z m-5310 -582 c96 -141 167 -314 202 -492 23 -119 23 -365 0
-485 -41 -206 -150 -434 -285 -596 l-29 -34 -65 88 c-116 154 -194 325 -239
520 -29 131 -32 395 -5 520 43 198 125 381 243 540 l66 89 28 -35 c16 -19 54
-71 84 -115z m4110 1 c98 -148 155 -282 196 -460 32 -144 32 -396 0 -540 -45
-195 -123 -366 -239 -520 l-65 -88 -31 38 c-140 171 -240 386 -283 603 -23
118 -23 356 0 474 39 196 129 399 244 552 l67 89 29 -34 c15 -19 52 -70 82
-114z m-2122 93 c275 -339 360 -815 222 -1235 -19 -55 -49 -132 -69 -170 -40
-81 -145 -240 -175 -267 -21 -19 -21 -19 -42 0 -30 27 -135 186 -175 267 -20
38 -50 115 -69 170 -139 417 -54 891 222 1235 19 23 38 42 43 42 5 0 24 -19
43 -42z"/>
</g>
</svg>
